<svg xmlns="http://www.w3.org/2000/svg" width="239.439" height="59.601" viewBox="0 0 239.439 59.601">
  <g id="Grupo_915" data-name="Grupo 915" transform="translate(0.002 -0.001)">
    <g id="Grupo_870" data-name="Grupo 870" transform="translate(0)">
      <path id="União_2" data-name="União 2" d="M17366.57,9117.578l-.652-.026,1.217-2.894q.762-1.806,1.518-3.612c1.5-3.568,2.717-6.515,3.855-9.271,1.377-3.348,2.611-6.4,3.768-9.306.48-1.209.961-2.417,1.432-3.626.27-.7.547-1.394.82-2.091,1.072-2.708,2.18-5.5,3.105-8.3.031-.093.063-.189.094-.287a2.991,2.991,0,0,1,1.3-2.011,1.608,1.608,0,0,1,1.857.33,2.273,2.273,0,0,1,.215,1.994,6.4,6.4,0,0,1-.744,1.526l-.023.035a4.555,4.555,0,0,0-.715,1.632c.094-.093.186-.2.273-.309s.156-.19.23-.273c.291-.313.6-.648.922-.976a9.675,9.675,0,0,1,2.139-1.667,5.346,5.346,0,0,1,4.637-.507,5.444,5.444,0,0,1,3.047,4.564,13.009,13.009,0,0,1-.477,4.424,18.618,18.618,0,0,1,10.8-6.955,10.639,10.639,0,0,1,4.168-.137,2.456,2.456,0,0,1,2.123,1.574,2.2,2.2,0,0,1-.473,1.857c-.873,1.16-1.918.533-2.611.123-.105-.066-.215-.132-.326-.189a4.3,4.3,0,0,0-2.553-.41,12.376,12.376,0,0,0-6.768,3.528,17.716,17.716,0,0,0-2.627,3.048,5.727,5.727,0,0,0-1.289,3.607.576.576,0,0,0,.094.287c.123.142.488.084.807-.035a11.167,11.167,0,0,0,3.082-2.012,67.445,67.445,0,0,0,5.1-5.01c.33-.349.656-.7.992-1.046a1.943,1.943,0,0,1,1.023-.626,1.087,1.087,0,0,1,1.252.771,1.339,1.339,0,0,1-.039.6c-.164.7-.363,1.4-.557,2.073a19.5,19.5,0,0,0-.988,5.288.813.813,0,0,0,.027.251.875.875,0,0,0,.186-.083,18.443,18.443,0,0,0,3.5-2.708c.137-.119.268-.243.4-.362.111-.317.23-.644.367-.97a28.443,28.443,0,0,1,4.074-6.9c.424-.533.83-1,1.23-1.437a11.583,11.583,0,0,1,4.7-3.233c1.547-.529,3.646-.507,4.463,1.279.975,2.144-.732,5.125-1.279,5.985a2.807,2.807,0,0,1-1.227,1.169,1.319,1.319,0,0,1-1.547-.322,1.3,1.3,0,0,1-.209-1.1,6.786,6.786,0,0,1,.451-1.116c.379-.847,1.018-2.254.705-2.778-.021-.049-.115-.207-.547-.242a1.575,1.575,0,0,0-.693.146c-2.332.895-3.912,3.224-5.3,5.279a17.136,17.136,0,0,0-1.914,3.418c-.621,1.61-.711,2.77-.256,3.453a1.932,1.932,0,0,0,1.627.72c.172,0,.357-.022.564-.049a1.319,1.319,0,0,1,.164-.053c.133-.031.273-.062.41-.1.207-.053.424-.1.631-.146a14.182,14.182,0,0,0,3.719-2.144c.926-.692,1.807-1.473,2.664-2.231.652-.573,1.322-1.169,2.01-1.729a17.644,17.644,0,0,1,1.178-1.632,19.429,19.429,0,0,1,1.857-1.9l.225-.216a1.9,1.9,0,0,0,.445-1.12c.045-.221.088-.454.154-.688a8.255,8.255,0,0,1,.98-2.051,7.989,7.989,0,0,1,3.355-2.9,4.729,4.729,0,0,1,3.393-.357,4.116,4.116,0,0,1,2.451,2.413,7.658,7.658,0,0,1,.469,3.308,17.347,17.347,0,0,1-.441,2.924,1.1,1.1,0,0,0-.023.115,2.641,2.641,0,0,0,.605-.137c.049-.022.291-.133.512-.229.449-.2,1.066-.472,1.521-.645l.516-.193.088.538c.053.3.119.617.182.917.074.349.15.71.2,1.059l.066.41-.332.137a19.7,19.7,0,0,1-3.783,1.134c-.508.1-.553.194-.82.724-.309.621-.645,1.217-.984,1.772a18.315,18.315,0,0,1-2.545,3.277,12.794,12.794,0,0,1-6.029,3.546,5.5,5.5,0,0,1-3.193-.018,3.469,3.469,0,0,1-2.25-2.889,5.634,5.634,0,0,1-.018-1.742,24.742,24.742,0,0,1-2.865,1.909,3.832,3.832,0,0,1,.211,2.1,5.97,5.97,0,0,1-2.016,3.251,11.742,11.742,0,0,1-6.236,2.99l-.494.075-.031-.5c-.021-.556-.053-1.111-.074-1.667l-.014-.4.393-.062a8.668,8.668,0,0,0,5.367-3.044,2.5,2.5,0,0,0,.592-1.213,1.055,1.055,0,0,0-.027-.37c-2.35,1.01-4.229,1.274-5.732.8a2.988,2.988,0,0,1-2.18-2.466,22.663,22.663,0,0,1-2.8,2,4.2,4.2,0,0,1-1.662.657,2.033,2.033,0,0,1-1.871-.676,2.578,2.578,0,0,1-.459-1.35,10.343,10.343,0,0,1,.406-3.8c-.291.277-.582.56-.859.847-.363.361-.742.741-1.129,1.085-1.51,1.336-4.031,3.572-6.705,3.775a2.471,2.471,0,0,1-1.932-.617,2.926,2.926,0,0,1-.711-2.351,9.481,9.481,0,0,1,.455-2.387c-.129.168-.246.34-.371.512-.088.123-.172.238-.256.353a11.041,11.041,0,0,1-5.91,4.094,5.5,5.5,0,0,1-2.812.154,2.979,2.979,0,0,1-2.18-1.989c-.383-1.442.574-2.986,2.563-4.133a19.11,19.11,0,0,1,5.721-2.161l.207-.044a4,4,0,0,0,1.76-.627,2.942,2.942,0,0,0,.914-2.024,6.278,6.278,0,0,0-.5-3.162,2.506,2.506,0,0,0-1.41-1.5,2.749,2.749,0,0,0-2.148.582c-4.287,2.677-6.488,7.463-8.732,12.98l-9.4,23.129-.295.009c-.41.009-.865.018-1.34.018C17367.352,9117.6,17366.963,9117.6,17366.57,9117.578Zm62.137-31.152a2.177,2.177,0,0,0-.246.247l-.018.026-.15.146a9.906,9.906,0,0,0-2.553,5.235,2.519,2.519,0,0,0-.006.975,1.989,1.989,0,0,0,.424.892,2.431,2.431,0,0,0,2.457.229,7.029,7.029,0,0,0,2.143-1.243,11.71,11.71,0,0,0,2.1-2.14,14.424,14.424,0,0,0,1.4-2.328l.008-.027c.027-.044.049-.088.066-.123-.07,0-.148-.009-.256-.009a10.266,10.266,0,0,1-3.1-.428,4.409,4.409,0,0,1-2.207-1.5Zm-43.32,5.765a5.378,5.378,0,0,0-1.3.771c-.416.366-.314.49-.27.547a1.135,1.135,0,0,0,1,.38,2.351,2.351,0,0,0,1.307-.41l.018-.014a9.59,9.59,0,0,0,2.668-2.443A20.252,20.252,0,0,0,17385.387,9092.19Zm50.012-6.832.021,0a.089.089,0,0,0,.094-.062c.008-.035.018-.07.025-.105.006,0,.006-.009.006-.018.053-.177.1-.362.141-.547s.08-.366.109-.547c.027-.133.049-.27.066-.406a9.316,9.316,0,0,0,.084-1.115,6.013,6.013,0,0,0-.092-1.015,4.222,4.222,0,0,0-.314-.975l-.012-.031a2.263,2.263,0,0,0-.662-.873c-.326-.265-.887-.512-1.959.3l-.031.021a2.877,2.877,0,0,0-.691.618c-1.016,1.31-1.266,2.452-.742,3.493a2.417,2.417,0,0,0,1.479.983,10.274,10.274,0,0,0,2.447.273Zm-98.979,12.632c-2.131-2.858-1.852-6.929.746-11.163l.014-.018c4.176-6.091,10.545-9.906,17.023-13.021-5.3-.291-6.8-2.042-7.088-3.555-.635-3.388,4.42-7.728,9.541-9.646a36.8,36.8,0,0,1,10.594-2.559l.486-.031v3.039l-.494-.048c-5.219-.5-15.037,4.159-17.008,7.4-.516.847-.266,1.243-.182,1.371.424.657,2.545,2.051,13.078.8l.027,0a1.64,1.64,0,0,1,.291.014l.383.053v2.7l-.375.062a31.281,31.281,0,0,0-6.73,2.355c-5.107,2.315-12.076,6.166-16.283,11.353-2.947,4.592-3.4,8.116-1.271,9.929,3.729,3.18,14.621.7,23.633-7.361.119-.207.229-.393.34-.552.088-.146.635-.847,1.129-1.455,1.143-1.394,1.27-1.411,1.469-1.425l.217-.021.162.149c.428.424.848.843,1.266,1.262l.336.335-.35.317c-.285.27-.52.5-.727.729a5.853,5.853,0,0,0-1.6,2.606,1.9,1.9,0,0,0,.326,1.614,1.923,1.923,0,0,0,1.338.538,5.916,5.916,0,0,0,4.354-1.729,4.194,4.194,0,0,0,1.26-3.237,11.035,11.035,0,0,0-1.287-3.96l-.057-.119a9.369,9.369,0,0,1-1.059-3.123,5.276,5.276,0,0,1,1.063-3.644,5.821,5.821,0,0,1,1.852-1.592c1.668-.918,5.346-.9,5.756-.891l.658.009-.248.612c-.131.34-.3.7-.457,1.037s-.314.67-.441.992l-.115.287-.312,0c-.01,0-.154,0-.3-.014s-.26-.013-.277-.013c-.707-.009-1.342-.018-1.984,0a2.023,2.023,0,0,0-1.395.459.851.851,0,0,0-.141.15,1.861,1.861,0,0,0-.344,1.676,7.441,7.441,0,0,0,.564,1.446l.025.044a19.1,19.1,0,0,1,1.682,4.614,7.8,7.8,0,0,1-1.91,6.752,10.215,10.215,0,0,1-8.168,3.33,4.066,4.066,0,0,1-2.814-1.1,3.22,3.22,0,0,1-.777-1.579,36.85,36.85,0,0,1-13.492,6.545,16.736,16.736,0,0,1-4.27.587C17340.783,9101.285,17338.018,9100.139,17336.42,9097.99Zm137.654-11.5c1.047-5.178,5.537-8.834,11.512-8.834,7.283,0,10.9,4.265,9.594,10.268-1.09,5.183-5.584,8.879-11.512,8.879C17476.342,9096.8,17472.766,9092.49,17474.074,9086.487Zm6.193.741c-.568,2.7.74,4.613,3.4,4.613a5.521,5.521,0,0,0,5.32-4.657c.607-2.7-.742-4.569-3.357-4.569A5.527,5.527,0,0,0,17480.268,9087.229Zm-29.828-.569c1.217-5.786,5.318-9.006,10.465-9.006,2.877,0,4.971.652,6.238,1.914l2.615-12.311a3.526,3.526,0,0,1,3.533-2.654c1.525,0,2.791.912,2.438,2.654l-4.229,19.884a11.935,11.935,0,0,1-11.816,9.659C17453.143,9096.8,17449.084,9093.188,17450.439,9086.659Zm6.188.525c-.648,3.22,1.178,4.657,3.361,4.657a5.494,5.494,0,0,0,5.363-4.657c.652-3.092-1.09-4.658-3.357-4.658A5.514,5.514,0,0,0,17456.627,9087.185Zm71.391-.741c1.217-5.438,5.623-8.79,11.643-8.79,5.275,0,9.246,2.135,8.2,6.66-.869,4.265-4.75,5.654-8.98,5.654a11.748,11.748,0,0,1-5.191-.957c.217,1.874,1.66,2.915,4.928,2.915a11.868,11.868,0,0,0,4.449-.869c2.008-.564,3.01.741,2.705,2.087a2.952,2.952,0,0,1-1.57,1.958c-1.7,1-3.838,1.438-6.891,1.438C17529.8,9096.539,17526.752,9092.318,17528.018,9086.443Zm6.5-1.478a9.366,9.366,0,0,0,4.186.869c2.184,0,3.273-.608,3.533-1.826.26-1.306-.7-1.958-2.615-1.958C17537,9082.051,17535.432,9083.1,17534.514,9084.966Zm13.791,8.7,1.311-6.135c1.57-7.878,5.8-9.88,11.557-9.88,2.748,0,3.316,1.609,2.836,3.264a3.217,3.217,0,0,1-3.361,2.567c-3.484,0-4.711,2.09-5.187,4.353l-1.221,5.831a3.3,3.3,0,0,1-3.533,2.7C17548.875,9096.363,17547.914,9095.494,17548.3,9093.668Zm-29.779-2.307,5.146-24.1a3.527,3.527,0,0,1,3.533-2.654c1.525,0,2.832.912,2.488,2.654l-4.844,22.583c-.176.868-.043,1.173.57,1.261,1,.217,1.393,1.566.957,2.827-.393,1.262-1.482,2.436-3.971,2.436C17519.658,9096.363,17517.828,9094.581,17518.525,9091.361Zm-8.887,2.175,1.438-6.612c.525-2.61-.26-3.96-2.748-3.96-2.439,0-3.881,1.438-4.445,3.7l-1.531,7.053a3.474,3.474,0,0,1-3.529,2.651c-1.486,0-2.791-.869-2.443-2.651l5.668-26.455a3.53,3.53,0,0,1,3.533-2.654c1.486,0,2.791.912,2.443,2.654l-2.748,12.747a8.991,8.991,0,0,1,6.193-2.351c4.141,0,7.193,1.7,5.539,9.315l-1.4,6.567a3.533,3.533,0,0,1-3.488,2.827C17510.6,9096.363,17509.246,9095.366,17509.639,9093.536Zm57.8-13.338a3.5,3.5,0,1,1,3.5,3.5A3.5,3.5,0,0,1,17567.439,9080.2Zm.523,0a2.976,2.976,0,1,0,2.973-2.973A2.975,2.975,0,0,0,17567.963,9080.2Zm1.205,1.711v-3.33c0-.393.8-.48,1.689-.48.723,0,1.848.186,1.848,1.318a1.122,1.122,0,0,1-.674,1.046,1.608,1.608,0,0,1,.766,1.446.384.384,0,0,1-.4.38.36.36,0,0,1-.393-.38,1.1,1.1,0,0,0-1.184-1.134,5.15,5.15,0,0,1-.842-.07v1.2a.4.4,0,0,1-.807,0Zm.828-3.087v1.239a4.059,4.059,0,0,0,.928.1c.41,0,.939-.172.939-.71s-.529-.732-.939-.732A4.242,4.242,0,0,0,17570,9078.822Zm-81.137-6.127a4.053,4.053,0,0,1,3.793-3.092,2.467,2.467,0,0,1,2.527,3.092,4.058,4.058,0,0,1-3.832,3.044A2.407,2.407,0,0,1,17488.859,9072.7Zm-8.729,0a4.057,4.057,0,0,1,3.8-3.092,2.444,2.444,0,0,1,2.488,3.092,4.015,4.015,0,0,1-3.8,3.044A2.408,2.408,0,0,1,17480.131,9072.7Z" transform="translate(-17335 -9057.998)" fill="#fff"/>
    </g>
  </g>
</svg>
