<svg id="Grupo_764" data-name="Grupo 764" xmlns="http://www.w3.org/2000/svg" xmlns:xlink="http://www.w3.org/1999/xlink" width="250" height="139.264" viewBox="0 0 250 139.264">
  <defs>
    <clipPath id="clip-path">
      <rect id="Retângulo_133" data-name="Retângulo 133" width="250" height="139.264" fill="#fff"/>
    </clipPath>
  </defs>
  <g id="Grupo_763" data-name="Grupo 763" clip-path="url(#clip-path)">
    <path id="Caminho_28" data-name="Caminho 28" d="M89.965,82.75a18.206,18.206,0,0,0,4.459-15.737A44.827,44.827,0,0,0,90.5,56.258l-.051-.107a16.441,16.441,0,0,1-1.319-3.37,4.379,4.379,0,0,1,.792-3.906,3.842,3.842,0,0,1,.337-.348A4.671,4.671,0,0,1,93.5,47.462c1.5-.036,2.99-.016,4.624.01l.656.029.7.03.725.012.269-.673c.3-.748.67-1.543,1.028-2.312.37-.795.754-1.617,1.075-2.419l.569-1.421-1.531-.021c-.961-.009-9.527-.065-13.419,2.069a13.611,13.611,0,0,0-4.312,3.712,12.388,12.388,0,0,0-2.48,8.5,21.854,21.854,0,0,0,2.472,7.267l.131.275c1.455,3.045,2.778,6.043,2.991,9.235a9.758,9.758,0,0,1-2.935,7.546,13.8,13.8,0,0,1-10.146,4.026,4.426,4.426,0,0,1-3.11-1.258,4.29,4.29,0,0,1-.758-3.746c.412-1.872,1.59-3.806,3.709-6.086.49-.528,1.034-1.067,1.712-1.7l.8-.743-.771-.771q-1.473-1.471-2.948-2.939l-.39-.361-.5.051c-.465.048-.772.08-3.425,3.33-1.157,1.418-2.421,3.047-2.644,3.386-.251.382-.509.8-.784,1.285C43.8,92.576,18.42,98.349,9.726,90.944c-4.96-4.225-3.909-12.44,2.958-23.136C22.5,55.709,38.74,46.737,50.638,41.342c6.937-3.079,12.216-4.926,15.691-5.491l.883-.144V29.421l-.9-.131a3.329,3.329,0,0,0-.682-.029l-.064.006c-24.554,2.925-29.491-.322-30.474-1.853-.194-.3-.786-1.225.415-3.2C40.113,16.666,63,5.813,75.15,6.974l1.152.111V0L75.176.08C65.6.756,57.645,3.34,50.474,6.032c-11.93,4.487-23.709,14.6-22.229,22.5C28.9,32.042,32.4,36.135,44.758,36.8,29.666,44.06,14.813,52.961,5.081,67.149l-.029.045c-6.065,9.879-6.7,19.366-1.739,26.03,3.722,5,10.17,7.668,17.847,7.668a38.9,38.9,0,0,0,9.946-1.364A86.034,86.034,0,0,0,62.559,84.274a7.461,7.461,0,0,0,1.806,3.683c1.429,1.522,3.575,2.358,6.562,2.556A23.811,23.811,0,0,0,89.965,82.75" transform="translate(0)" fill="#fff"/>
    <path id="Caminho_29" data-name="Caminho 29" d="M369.794,136.212c-.126-.818-.3-1.661-.473-2.476-.147-.7-.3-1.424-.418-2.131l-.212-1.258-1.194.449c-1.056.4-2.5,1.039-3.553,1.508-.5.224-1.076.479-1.2.521a5.735,5.735,0,0,1-1.4.332,2.108,2.108,0,0,1,.043-.275,41,41,0,0,0,1.036-6.813,17.742,17.742,0,0,0-1.087-7.7,9.645,9.645,0,0,0-5.717-5.637,11.121,11.121,0,0,0-7.912.837,19.042,19.042,0,0,0-10.1,11.54,13.8,13.8,0,0,0-.365,1.6,4.5,4.5,0,0,1-1.034,2.61l-.534.5a46.42,46.42,0,0,0-4.318,4.413,38.144,38.144,0,0,0-2.746,3.81c-1.611,1.3-3.179,2.691-4.7,4.033-1.993,1.762-4.053,3.584-6.2,5.2a33.277,33.277,0,0,1-8.663,4.994c-.5.1-.994.221-1.482.34-.32.078-.638.155-.95.225a2.46,2.46,0,0,0-.392.123,11.138,11.138,0,0,1-1.308.107,4.474,4.474,0,0,1-3.8-1.668c-1.051-1.59-.848-4.3.6-8.054a39.972,39.972,0,0,1,4.463-7.968c3.242-4.787,6.918-10.212,12.35-12.308a3.921,3.921,0,0,1,1.627-.336c.994.083,1.208.449,1.279.569.719,1.224-.77,4.512-1.659,6.476a16.671,16.671,0,0,0-1.036,2.6,3.025,3.025,0,0,0,.471,2.565,3.081,3.081,0,0,0,3.62.747,6.642,6.642,0,0,0,2.852-2.718c1.274-2.009,5.252-8.952,2.98-13.953-1.893-4.167-6.79-4.209-10.408-2.98a27.088,27.088,0,0,0-10.944,7.542c-.942,1-1.882,2.1-2.872,3.341a66.428,66.428,0,0,0-9.5,16.092c-.315.767-.6,1.524-.853,2.256q-.472.426-.941.852a42.757,42.757,0,0,1-8.168,6.313,2.3,2.3,0,0,1-.435.2,2.071,2.071,0,0,1-.063-.586c-.005-4.164,1.17-8.315,2.306-12.329.447-1.579.909-3.212,1.3-4.83a3.1,3.1,0,0,0,.089-1.392,2.521,2.521,0,0,0-2.919-1.794,4.446,4.446,0,0,0-2.38,1.457q-1.161,1.215-2.316,2.437a159.277,159.277,0,0,1-11.873,11.681,25.928,25.928,0,0,1-7.2,4.688c-.726.28-1.585.411-1.871.077a1.319,1.319,0,0,1-.215-.667c-.269-2.189.714-4.939,3-8.4a41.6,41.6,0,0,1,6.13-7.113c4.886-4.653,10.486-7.57,15.768-8.213a9.963,9.963,0,0,1,5.958.943c.253.14.505.291.757.441,1.611.963,4.046,2.417,6.085-.286a5.11,5.11,0,0,0,1.1-4.325c-.492-1.838-2.245-3.137-4.935-3.657a24.518,24.518,0,0,0-9.719.315,43.417,43.417,0,0,0-25.183,16.212,30.241,30.241,0,0,0,1.112-10.317c-.52-4.915-3.306-9.09-7.1-10.637-3.232-1.318-7.074-.9-10.816,1.182a22.546,22.546,0,0,0-4.975,3.887c-.75.748-1.475,1.534-2.148,2.273-.177.195-.355.41-.537.631-.207.251-.417.506-.632.729a10.466,10.466,0,0,1,1.661-3.808l.051-.085a15.318,15.318,0,0,0,1.735-3.561c.207-.707.783-3.13-.5-4.645a3.776,3.776,0,0,0-4.334-.776c-1.85.879-2.507,2.992-3.035,4.689-.072.234-.143.46-.214.673-2.168,6.512-4.743,13.031-7.235,19.335q-.964,2.438-1.92,4.875-1.654,4.231-3.334,8.452c-2.7,6.788-5.574,13.882-8.786,21.688-2.644,6.429-5.5,13.3-8.984,21.615q-1.764,4.21-3.533,8.419l-2.837,6.744,1.517.06c.919.036,1.83.05,2.712.05,1.111,0,2.172-.022,3.134-.046l.688-.018,21.906-53.906c5.225-12.859,10.363-24.01,20.349-30.253,2.083-1.3,3.674-1.736,5.006-1.358,1.653.467,2.7,2.167,3.3,3.511a14.664,14.664,0,0,1,1.163,7.361,6.883,6.883,0,0,1-2.121,4.727,9.521,9.521,0,0,1-4.1,1.459l-.5.1a44.712,44.712,0,0,0-13.325,5.04c-4.646,2.668-6.882,6.268-5.98,9.629a6.913,6.913,0,0,0,5.083,4.632,12.7,12.7,0,0,0,6.557-.356,25.724,25.724,0,0,0,13.776-9.537c.2-.268.393-.543.591-.821.286-.4.574-.8.868-1.2a21.476,21.476,0,0,0-1.062,5.56c-.123,2.452.433,4.3,1.652,5.482a5.791,5.791,0,0,0,4.514,1.441c6.228-.473,12.106-5.686,15.619-8.8.909-.806,1.786-1.685,2.635-2.536.656-.658,1.323-1.326,2.008-1.963a24.034,24.034,0,0,0-.947,8.842,5.939,5.939,0,0,0,1.072,3.15,4.756,4.756,0,0,0,4.355,1.58,10.147,10.147,0,0,0,3.874-1.533,52.254,52.254,0,0,0,6.522-4.68,6.979,6.979,0,0,0,5.088,5.749c3.5,1.1,7.877.483,13.364-1.872a2.734,2.734,0,0,1,.058.874,5.818,5.818,0,0,1-1.371,2.821,20.3,20.3,0,0,1-12.517,7.091l-.921.148.037.932q.077,1.947.18,3.892l.06,1.166,1.154-.181a27.241,27.241,0,0,0,14.542-6.961c2.729-2.567,4.265-5.044,4.7-7.577a8.879,8.879,0,0,0-.49-4.893,58.306,58.306,0,0,0,6.679-4.452,13.264,13.264,0,0,0,.047,4.067c.6,3.408,2.411,5.735,5.242,6.732a12.924,12.924,0,0,0,7.436.042,29.924,29.924,0,0,0,14.064-8.271,42.638,42.638,0,0,0,5.924-7.646c.793-1.289,1.567-2.678,2.3-4.129.623-1.236.735-1.458,1.9-1.682a45.92,45.92,0,0,0,8.824-2.646l.769-.317Zm-130.665,16.3-.044.029a5.464,5.464,0,0,1-3.033.965,2.685,2.685,0,0,1-2.333-.895c-.1-.124-.33-.413.62-1.267a12.672,12.672,0,0,1,3.047-1.8,46.637,46.637,0,0,1,7.953-2.723,22.407,22.407,0,0,1-6.21,5.693m112.187-11.719-.03.058a33.084,33.084,0,0,1-3.26,5.426,27.111,27.111,0,0,1-4.876,4.989,16.523,16.523,0,0,1-5,2.9c-2.528.8-4.4.625-5.719-.525a4.5,4.5,0,0,1-1-2.084,6.032,6.032,0,0,1,.008-2.27,23.04,23.04,0,0,1,5.948-12.2l.344-.344.053-.057a5.536,5.536,0,0,1,.579-.578l.118-.119a10.236,10.236,0,0,0,5.141,3.5,24.12,24.12,0,0,0,7.23,1c.247,0,.449.005.614.013-.044.086-.1.183-.156.292m3.575-10.149c-.078.429-.17.854-.267,1.281s-.2.855-.317,1.278c0,.013-.007.025-.011.038q-.034.12-.07.239a.2.2,0,0,1-.213.142l-.058-.006H353.9a23.782,23.782,0,0,1-5.72-.641,5.612,5.612,0,0,1-3.443-2.287c-1.212-2.428-.641-5.1,1.732-8.144a6.634,6.634,0,0,1,1.612-1.443l.071-.049c2.5-1.9,3.8-1.31,4.564-.7a5.137,5.137,0,0,1,1.55,2.039l.033.073a9.817,9.817,0,0,1,.715,2.269,12.8,12.8,0,0,1,.213,2.363,21.451,21.451,0,0,1-.191,2.6c-.038.317-.087.631-.144.944" transform="translate(-119.944 -69.842)" fill="#fff"/>
    <path id="Caminho_30" data-name="Caminho 30" d="M314.018,281.853a3.667,3.667,0,0,0-3.673,2.759l-2.721,12.8c-1.315-1.312-3.491-1.99-6.483-1.99-5.35,0-9.612,3.348-10.882,9.364-1.405,6.786,2.811,10.54,9.612,10.54a12.412,12.412,0,0,0,12.287-10.043l4.4-20.673c.363-1.809-.952-2.759-2.539-2.759m-8.252,23.478a5.71,5.71,0,0,1-5.577,4.84c-2.267,0-4.171-1.493-3.491-4.84a5.723,5.723,0,0,1,5.577-4.84c2.357,0,4.171,1.629,3.491,4.84m27.024-11.9a4.222,4.222,0,0,0,3.99-3.166,2.566,2.566,0,0,0-2.629-3.212,4.215,4.215,0,0,0-3.945,3.212,2.5,2.5,0,0,0,2.585,3.166m-9.072,0a4.171,4.171,0,0,0,3.945-3.166,2.539,2.539,0,0,0-2.585-3.212,4.215,4.215,0,0,0-3.944,3.212,2.5,2.5,0,0,0,2.584,3.166m3.085,1.99c-6.211,0-10.881,3.8-11.97,9.183-1.36,6.243,2.358,10.721,9.975,10.721,6.166,0,10.836-3.845,11.97-9.229,1.36-6.242-2.4-10.676-9.975-10.676m3.537,9.907a5.738,5.738,0,0,1-5.532,4.84c-2.766,0-4.126-1.99-3.536-4.8a5.749,5.749,0,0,1,5.577-4.795c2.72,0,4.126,1.945,3.491,4.75m23.372-9.907a9.342,9.342,0,0,0-6.438,2.443l2.856-13.254c.363-1.809-1-2.759-2.539-2.759a3.667,3.667,0,0,0-3.672,2.759l-5.894,27.5c-.363,1.854,1,2.759,2.539,2.759a3.619,3.619,0,0,0,3.673-2.759l1.587-7.329c.59-2.352,2.086-3.845,4.625-3.845,2.584,0,3.4,1.4,2.856,4.117l-1.5,6.876c-.408,1.9,1,2.94,2.585,2.94a3.675,3.675,0,0,0,3.627-2.94l1.451-6.831c1.723-7.917-1.451-9.681-5.758-9.681m14.5,13.978c-.635-.091-.771-.407-.59-1.312l5.033-23.478c.363-1.809-1-2.759-2.584-2.759a3.667,3.667,0,0,0-3.673,2.759l-5.35,25.061c-.725,3.348,1.179,5.2,4.035,5.2,2.584,0,3.718-1.221,4.126-2.533.453-1.312.045-2.714-1-2.94m14.807-13.978c-6.257,0-10.837,3.483-12.106,9.138-1.315,6.107,1.859,10.5,9.657,10.5,3.174,0,5.4-.453,7.164-1.493a3.073,3.073,0,0,0,1.632-2.036c.317-1.4-.726-2.759-2.811-2.171a12.27,12.27,0,0,1-4.624.9c-3.4,0-4.9-1.085-5.124-3.031a12.225,12.225,0,0,0,5.4.995c4.4,0,8.433-1.447,9.34-5.881,1.088-4.7-3.038-6.921-8.524-6.921m2.675,6.6c-.272,1.266-1.406,1.9-3.673,1.9a9.739,9.739,0,0,1-4.353-.9c.952-1.945,2.585-3.031,5.3-3.031,1.995,0,2.992.679,2.72,2.036m19.69-6.6c-5.985,0-10.383,2.081-12.015,10.269l-1.36,6.378c-.408,1.9.589,2.8,2.494,2.8a3.434,3.434,0,0,0,3.673-2.8l1.269-6.062c.5-2.352,1.769-4.524,5.4-4.524a3.342,3.342,0,0,0,3.491-2.669c.5-1.719-.091-3.393-2.947-3.393" transform="translate(-181.147 -176.064)" fill="#fff"/>
    <path id="Caminho_31" data-name="Caminho 31" d="M615.961,320.443a.725.725,0,0,0,.435-.676c0-.732-.726-.852-1.193-.852-.575,0-1.093.057-1.093.309v2.153a.262.262,0,0,0,.524,0V320.6a3.333,3.333,0,0,0,.543.044.713.713,0,0,1,.764.732.233.233,0,0,0,.253.246.25.25,0,0,0,.265-.246,1.035,1.035,0,0,0-.5-.934m-.714-.2a2.723,2.723,0,0,1-.6-.063v-.8a2.7,2.7,0,0,1,.6-.069c.265,0,.606.12.606.473s-.341.461-.606.461m.009-2.236a2.262,2.262,0,1,0,2.262,2.262,2.262,2.262,0,0,0-2.262-2.262m0,4.184a1.922,1.922,0,1,1,1.922-1.922,1.922,1.922,0,0,1-1.922,1.922" transform="translate(-382.918 -198.65)" fill="#fff"/>
  </g>
</svg>
